<?xml version="1.0" standalone="no"?>
<!DOCTYPE svg PUBLIC "-//W3C//DTD SVG 20010904//EN"
 "http://www.w3.org/TR/2001/REC-SVG-20010904/DTD/svg10.dtd">
<svg version="1.0" xmlns="http://www.w3.org/2000/svg"
 width="1024.000000pt" height="1024.000000pt" viewBox="0 0 1024.000000 1024.000000"
 preserveAspectRatio="xMidYMid meet">
<metadata>
Created by potrace 1.14, written by Peter Selinger 2001-2017
</metadata>
<g transform="translate(0.000000,1024.000000) scale(0.100000,-0.100000)"
fill="#000000" stroke="none">
<path d="M8490 8304 c0 -9 -5 -14 -12 -12 -16 6 -46 -20 -63 -53 -13 -24 -45
-36 -45 -17 0 4 -7 8 -15 8 -8 0 -15 -5 -15 -10 0 -6 -10 -14 -23 -19 -13 -5
-41 -21 -62 -35 -21 -14 -47 -26 -59 -27 -12 0 -43 -13 -71 -28 -41 -23 -53
-35 -65 -72 -8 -24 -16 -46 -17 -48 -1 -2 -22 -8 -45 -13 -109 -23 -165 -27
-205 -13 -17 5 -23 3 -23 -8 0 -8 5 -17 12 -19 24 -8 -1 -55 -39 -71 -21 -9
-58 -28 -83 -42 -25 -13 -53 -25 -62 -25 -10 0 -34 -10 -55 -22 -55 -31 -111
-58 -121 -58 -5 0 -36 -13 -70 -30 -34 -16 -66 -30 -71 -30 -5 0 -14 -7 -22
-16 -29 -36 -186 -104 -240 -104 -25 0 -42 -13 -77 -57 -16 -21 -57 -34 -122
-37 -35 -2 -80 -28 -127 -73 -22 -21 -60 -47 -84 -58 -24 -11 -50 -25 -57 -32
-7 -7 -43 -22 -81 -34 l-68 -22 -29 26 c-15 15 -31 23 -34 18 -11 -18 -50 -31
-77 -25 -22 4 -34 -1 -57 -25 -33 -35 -47 -38 -80 -16 -12 8 -38 17 -56 19
-27 3 -39 -2 -60 -24 -15 -16 -40 -30 -56 -33 -41 -7 -230 -99 -302 -147 -34
-22 -66 -40 -72 -40 -14 0 -44 -29 -46 -44 0 -6 -2 -22 -2 -36 -1 -15 -21 -47
-44 -74 -54 -61 -134 -145 -125 -130 7 11 -50 -16 -118 -57 -22 -13 -51 -25
-65 -27 -13 -2 -28 -8 -31 -14 -4 -6 -11 -8 -15 -5 -9 5 -36 -18 -29 -25 5 -5
-92 -59 -102 -57 -24 4 -43 -3 -43 -14 0 -8 -15 -14 -40 -15 -23 -2 -52 -7
-66 -12 -14 -6 -47 -10 -73 -10 -31 0 -54 -6 -67 -18 -10 -9 -31 -23 -46 -29
-26 -12 -27 -11 -34 22 -5 28 -11 35 -30 35 -12 0 -26 -5 -29 -10 -4 -6 -23
-7 -46 -4 -34 6 -42 3 -59 -19 -11 -14 -34 -28 -50 -32 -16 -4 -51 -17 -77
-31 -27 -13 -53 -24 -58 -24 -6 0 -35 -18 -65 -41 -64 -48 -102 -65 -165 -73
-37 -5 -52 -3 -66 10 -27 24 -81 20 -128 -11 -22 -15 -41 -35 -41 -43 0 -8 -3
-12 -7 -9 -3 4 -15 0 -25 -9 -9 -9 -35 -18 -55 -19 -48 -3 -102 -13 -128 -24
-11 -5 -42 -15 -70 -22 -55 -14 -109 -41 -140 -70 -14 -13 -36 -18 -70 -18
-67 -1 -85 -3 -85 -11 0 -13 -36 -48 -70 -69 -42 -25 -159 -81 -180 -86 -8 -2
-29 -8 -47 -14 -17 -5 -33 -7 -36 -5 -9 9 -85 -23 -312 -131 -185 -89 -199
-94 -269 -99 -70 -6 -154 -40 -220 -91 -39 -29 -56 -36 -236 -90 -184 -55
-242 -77 -268 -103 -11 -11 -35 -23 -53 -27 -18 -4 -46 -16 -62 -26 -17 -10
-34 -16 -39 -13 -4 3 -8 1 -8 -5 0 -11 -65 -34 -82 -29 -7 3 -19 -1 -26 -9 -8
-7 -18 -11 -23 -8 -5 4 -9 2 -9 -2 0 -5 -17 -10 -37 -11 -21 -1 -64 -4 -95 -8
-63 -7 -71 -17 -86 -103 -9 -55 10 -310 25 -334 4 -7 9 -19 10 -29 11 -71 95
-270 132 -312 9 -10 15 -20 13 -22 -5 -7 129 -238 139 -242 5 -2 9 -12 9 -23
0 -10 4 -19 9 -19 5 0 16 -19 26 -42 20 -50 70 -128 117 -180 66 -73 167 -208
167 -221 -1 -11 424 -430 471 -466 19 -14 46 -36 60 -49 14 -13 48 -37 75 -53
28 -15 60 -38 72 -49 12 -11 25 -20 28 -20 6 0 126 -79 135 -89 3 -3 11 -7 19
-9 7 -2 33 -16 57 -32 23 -17 49 -30 58 -30 8 0 18 -9 21 -20 3 -11 15 -20 26
-20 10 0 19 -4 19 -8 0 -10 77 -52 96 -52 8 0 14 -4 14 -10 0 -5 7 -10 15 -10
8 0 15 -4 15 -10 0 -5 9 -10 21 -10 11 0 17 -4 14 -10 -3 -5 2 -10 12 -10 10
0 25 -9 33 -20 8 -11 25 -20 37 -20 13 0 23 -4 23 -10 0 -5 7 -10 15 -10 8 0
15 -4 15 -10 0 -5 8 -10 18 -10 22 0 72 -22 72 -32 0 -5 9 -8 20 -8 11 0 20
-4 20 -10 0 -5 7 -10 15 -10 8 0 15 -4 15 -10 0 -5 16 -10 36 -10 21 0 33 -4
29 -10 -4 -6 7 -10 24 -10 21 0 31 -5 31 -15 0 -18 46 -39 62 -29 7 4 8 2 4
-4 -7 -12 11 -17 43 -13 7 2 10 -2 7 -7 -6 -10 28 -23 72 -28 13 -2 66 -21
117 -43 51 -22 146 -56 211 -76 65 -20 123 -40 128 -45 4 -4 15 -6 23 -3 8 3
24 1 36 -5 12 -6 36 -13 52 -16 92 -15 201 -41 206 -49 4 -5 56 -10 115 -11
85 -2 117 -6 144 -21 28 -15 61 -19 165 -21 72 -1 155 -6 185 -10 94 -13 443
-7 434 7 -5 8 72 12 226 12 30 0 57 3 60 7 3 5 21 9 40 11 19 2 40 6 45 10 6
3 42 9 80 12 39 4 81 9 95 11 13 3 39 7 56 8 18 1 30 6 28 10 -3 4 7 8 23 8
15 0 60 7 98 16 39 9 82 18 98 21 15 3 27 9 27 13 0 4 12 10 28 13 70 14 89
19 112 29 82 35 110 40 110 22 0 -16 26 -19 35 -4 3 6 1 10 -6 10 -7 0 -5 8 7
18 10 11 24 19 29 19 32 0 45 4 40 13 -3 6 3 10 14 10 10 0 22 -6 25 -12 3 -7
3 -3 0 10 -5 19 -1 22 26 22 18 0 29 4 25 10 -4 6 6 10 24 10 16 0 33 5 36 10
3 5 14 10 23 10 26 0 155 67 140 73 -7 3 4 6 25 6 20 1 37 6 37 11 0 6 9 10
20 10 11 0 20 5 20 11 0 8 6 7 17 -2 11 -10 14 -10 9 -1 -4 7 -2 12 4 12 6 0
8 5 5 10 -3 6 3 10 14 10 12 0 21 5 21 10 0 6 9 10 20 10 11 0 20 5 20 10 0 6
7 10 15 10 8 0 15 5 15 10 0 6 9 10 20 10 11 0 20 5 20 10 0 6 9 10 21 10 11
0 17 5 14 10 -3 5 3 10 14 10 12 0 21 5 21 10 0 6 7 10 15 10 19 0 55 20 76
43 9 9 24 17 33 17 9 0 16 5 16 10 0 6 7 10 15 10 8 0 15 5 15 10 0 6 7 10 15
10 8 0 15 5 15 10 0 6 7 10 15 10 8 0 15 5 15 10 0 6 5 10 10 10 6 0 22 11 35
24 14 14 38 33 55 42 16 10 30 22 30 26 0 4 7 8 15 8 8 0 15 3 15 8 0 4 14 13
30 20 17 8 28 18 24 23 -3 5 -1 9 5 9 6 0 21 10 34 23 57 52 88 77 97 77 5 0
15 9 22 20 7 11 16 20 21 20 16 0 325 303 377 370 50 65 49 63 68 87 9 11 24
31 32 43 8 13 25 32 37 44 12 11 23 28 25 36 4 20 15 34 70 92 26 27 50 58 53
69 4 10 11 19 17 19 6 0 9 3 5 6 -3 3 3 15 14 27 10 11 19 27 19 34 0 7 3 13
8 13 4 0 23 30 42 68 19 37 38 72 43 77 42 56 107 177 107 202 0 7 5 13 10 13
6 0 10 9 10 20 0 11 4 20 8 20 4 0 14 21 22 48 12 42 47 119 60 132 15 15 39
68 33 74 -3 3 -2 6 4 6 5 0 10 6 10 13 1 6 10 39 21 72 11 33 26 80 32 105 7
25 15 52 18 60 3 8 7 26 9 40 2 14 13 53 24 86 11 34 19 65 17 70 -1 5 3 32
10 59 11 49 15 80 28 195 4 30 10 60 14 65 7 10 16 74 26 195 2 36 7 72 11 80
22 57 34 570 19 825 -9 146 -22 290 -32 340 -3 17 -8 44 -10 60 -3 17 -14 65
-25 109 -10 43 -19 91 -19 105 0 41 -39 196 -82 321 -44 129 -43 128 -58 190
-6 24 -18 60 -27 80 -8 19 -19 44 -24 55 -5 11 -13 34 -19 50 -20 55 -35 85
-42 85 -5 0 -8 6 -8 13 0 7 -9 23 -20 35 -12 12 -18 22 -15 22 10 0 -83 173
-110 205 -13 17 -35 42 -47 57 -13 15 -29 28 -35 28 -7 0 -13 5 -13 10 0 6 -7
10 -15 10 -8 0 -15 5 -15 10 0 6 -18 10 -40 10 -30 0 -40 -4 -40 -16z"/>
<path d="M3445 2411 c-3 -6 4 -8 16 -6 30 6 37 15 11 15 -11 0 -23 -4 -27 -9z"/>
<path d="M6242 2234 c10 -10 20 -16 22 -13 3 3 -5 11 -17 18 -21 13 -21 12 -5
-5z"/>
<path d="M6318 2243 c7 -3 16 -2 19 1 4 3 -2 6 -13 5 -11 0 -14 -3 -6 -6z"/>
<path d="M4688 2108 c6 -6 18 -8 28 -6 14 3 12 5 -9 10 -19 3 -25 2 -19 -4z"/>
</g>
</svg>
